<?xml version="1.0" encoding="UTF-8"?>
<svg xmlns="http://www.w3.org/2000/svg" viewBox="0 0 50 50">
    <path style="line-height:normal;text-indent:0;text-align:start;text-decoration-line:none;text-decoration-style:solid;text-decoration-color:#000;text-transform:none;block-progression:tb;isolation:auto;mix-blend-mode:normal" d="M 17 7 C 16.181246 7 15.608496 7.4929914 15.193359 7.9628906 C 14.778223 8.4327899 14.44895 8.9675588 14.134766 9.46875 C 13.820581 9.9699412 13.519773 10.437136 13.275391 10.71875 C 13.031008 11.000364 12.913427 11 13 11 L 4 11 C 2.3544268 11 1 12.355541 1 14 L 1 40 C 1 41.644459 2.3544268 43 4 43 L 46 43 C 47.645063 43 49 41.645063 49 40 L 49 14 C 49 12.354937 47.645063 11 46 11 L 37 11 C 37.08657 11 36.96899 11.000364 36.724609 10.71875 C 36.480227 10.437136 36.179419 9.9699412 35.865234 9.46875 C 35.55105 8.9675588 35.221777 8.4327899 34.806641 7.9628906 C 34.391504 7.4929914 33.818754 7 33 7 L 17 7 z M 17 9 L 33 9 C 32.93925 9 33.06114 9.00701 33.308594 9.2871094 C 33.556051 9.5672101 33.857231 10.032441 34.169922 10.53125 C 34.482613 11.030059 34.806429 11.562864 35.212891 12.03125 C 35.619352 12.499636 36.178927 13 37 13 L 46 13 C 46.562937 13 47 13.437063 47 14 L 47 40 C 47 40.562937 46.562937 41 46 41 L 4 41 C 3.4355732 41 3 40.563541 3 40 L 3 14 C 3 13.436459 3.4355732 13 4 13 L 13 13 C 13.821073 13 14.380648 12.499636 14.787109 12.03125 C 15.193571 11.562864 15.517387 11.030059 15.830078 10.53125 C 16.142769 10.032441 16.443949 9.5672101 16.691406 9.2871094 C 16.938864 9.0070086 17.060754 9 17 9 z M 25 17 C 22.945525 17 21.025533 17.622795 19.435547 18.689453 A 1.0001 1.0001 0 1 0 20.550781 20.349609 C 21.822795 19.496267 23.348475 19 25 19 C 29.272428 19 32.734046 22.321479 32.976562 26.53125 L 31.398438 24.953125 A 1.0001 1.0001 0 0 0 30.679688 24.650391 A 1.0001 1.0001 0 0 0 29.984375 26.367188 L 34 30.382812 L 38.015625 26.367188 A 1.0001 1.0001 0 1 0 36.601562 24.953125 L 34.978516 26.576172 C 34.754011 21.261703 30.368406 17 25 17 z M 16 22.585938 L 11.984375 26.601562 A 1.0001 1.0001 0 1 0 13.398438 28.015625 L 15.039062 26.375 C 15.025975 26.583392 15 26.788494 15 27 C 15 32.511334 19.488666 37 25 37 C 27.566692 37 29.918486 36.028019 31.689453 34.433594 A 1.0001 1.0001 0 1 0 30.351562 32.947266 C 28.932529 34.22484 27.063308 35 25 35 C 20.569334 35 17 31.430666 17 27 C 17 26.813298 17.020635 26.632359 17.033203 26.449219 L 18.601562 28.017578 A 1.0001 1.0001 0 1 0 20.015625 26.603516 L 16 22.585938 z" font-weight="400" font-family="sans-serif" white-space="normal" overflow="visible"/>
</svg>